<?xml version="1.0" encoding="utf-8"?>
<!-- Generator: Adobe Illustrator 28.1.0, SVG Export Plug-In . SVG Version: 6.00 Build 0)  -->
<svg version="1.1" xmlns="http://www.w3.org/2000/svg" xmlns:xlink="http://www.w3.org/1999/xlink" x="0px" y="0px"
	 viewBox="0 0 800 800" style="enable-background:new 0 0 800 800;" xml:space="preserve">
<style type="text/css">
	.st0{fill-rule:evenodd;clip-rule:evenodd;fill:"currentcolor";stroke:#FFFFFF;stroke-width:20;stroke-miterlimit:10;}
	.st1{fill-rule:evenodd;clip-rule:evenodd;fill:#FFFFFF;}
</style>
<g id="fill-icon">
	<path class="st0" d="M700.3,766H99.7C63.6,766,34,736.4,34,700.3V99.7C34,63.6,63.6,34,99.7,34h600.6c36.2,0,65.8,29.6,65.8,65.8
		v600.6C766,736.4,736.4,766,700.3,766z"/>
</g>
<g id="Layer_1">
	<path class="st1" d="M622.2,544.8H177.8c-15.3,0-27.8,17.2-27.8,38.5c0,21.3,12.4,38.5,27.8,38.5h444.4c15.3,0,27.8-17.2,27.8-38.5
		C650,562,637.6,544.8,622.2,544.8z"/>
	<path class="st1" d="M622.2,361.5H177.8c-15.3,0-27.8,17.2-27.8,38.5s12.4,38.5,27.8,38.5h444.4c15.3,0,27.8-17.2,27.8-38.5
		S637.6,361.5,622.2,361.5z"/>
	<path class="st1" d="M622.2,178.2H177.8c-15.3,0-27.8,17.2-27.8,38.5s12.4,38.5,27.8,38.5h444.4c15.3,0,27.8-17.2,27.8-38.5
		S637.6,178.2,622.2,178.2z"/>
</g>
</svg>
