<?xml version="1.0" encoding="utf-8"?>
<!-- Generator: Adobe Illustrator 28.1.0, SVG Export Plug-In . SVG Version: 6.00 Build 0)  -->
<svg version="1.1" id="Layer_1" xmlns="http://www.w3.org/2000/svg" xmlns:xlink="http://www.w3.org/1999/xlink" x="0px" y="0px"
	 viewBox="0 0 72 72" style="enable-background:new 0 0 72 72;" xml:space="preserve">
<style type="text/css">
	.st0{fill-rule:evenodd;clip-rule:evenodd;fill:#007EBB;}
	.st1{display:none;fill-rule:evenodd;clip-rule:evenodd;fill:#007EBB;}
</style>
<g>
	<path class="st0" d="M64,0H8C3.6,0,0,3.6,0,8v56c0,4.4,3.6,8,8,8h56c4.4,0,8-3.6,8-8V8C72,3.6,68.4,0,64,0z M21.8,62H11V27.3h10.7
		L21.8,62L21.8,62z M16.3,22.8c-3.5,0-6.3-2.9-6.3-6.4s2.8-6.4,6.3-6.4s6.4,2.9,6.4,6.4C22.7,19.9,19.9,22.8,16.3,22.8z M62,62H51.3
		V43.8c0-5-1.9-7.8-5.9-7.8c-4.3,0-6.5,2.9-6.5,7.8V62H28.6V27.3h10.3V32c0,0,3.1-5.7,10.5-5.7C56.7,26.3,62,30.8,62,40V62z"/>
	<path class="st1" d="M22.7,16.4c0,3.5-2.8,6.4-6.4,6.4c-3.5,0-6.3-2.9-6.3-6.4s2.8-6.4,6.3-6.4C19.9,10,22.7,12.9,22.7,16.4z"/>
	<rect x="11" y="27.3" class="st1" width="10.7" height="34.7"/>
	<path class="st1" d="M62,40v22H51.3V43.8c0-5-1.9-7.8-5.9-7.8c-4.3,0-6.5,2.9-6.5,7.8V62H28.6V27.3h10.3V32c0,0,3.1-5.7,10.5-5.7
		C56.7,26.3,62,30.8,62,40z"/>
	<path class="st1" d="M11,27.3V62h10.7V27.3H11z M16.3,10c-3.5,0-6.3,2.9-6.3,6.4s2.8,6.4,6.3,6.4s6.4-2.9,6.4-6.4
		C22.7,12.9,19.9,10,16.3,10z M49.4,26.3C42,26.3,38.9,32,38.9,32v-4.7H28.6V62h10.3V43.8c0-4.9,2.2-7.8,6.5-7.8
		c4,0,5.9,2.8,5.9,7.8V62H62V40C62,30.8,56.7,26.3,49.4,26.3z"/>
</g>
</svg>
