<?xml version="1.0" encoding="UTF-8"?><svg id="_レイヤー_1" xmlns="http://www.w3.org/2000/svg" width="368.5" height="368.5" viewBox="0 0 368.5 368.5"><circle cx="184.25" cy="184.25" r="184.25" style="fill:#fff; stroke-width:0px;"/><path d="M278.96,90.37H89.54c-18.11,0-32.85,14.74-32.85,32.85v122.07c0,18.11,14.74,32.85,32.85,32.85h189.42c18.11,0,32.85-14.74,32.85-32.85v-122.07c0-18.11-14.74-32.85-32.85-32.85ZM231.25,179.17l56.95-47.34v104.28l-56.95-56.95h0ZM80.3,236.12v-104.29l56.95,47.34-56.95,56.95h0ZM95.04,113.98h178.43l-89.22,74.16-89.22-74.16h.01ZM89.54,254.53c-1.19,0-2.32-.23-3.36-.64l63.98-63.98,26.69,22.18c2.14,1.78,4.77,2.67,7.4,2.67s5.25-.89,7.4-2.67l26.69-22.18,63.98,63.98c-1.04.41-2.17.64-3.36.64H89.54Z" style="fill:#231f20; stroke-width:0px;"/></svg>