<?xml version="1.0" encoding="utf-8"?>
<!-- Generator: Adobe Illustrator 28.1.0, SVG Export Plug-In . SVG Version: 6.00 Build 0)  -->
<svg version="1.1" baseProfile="tiny" id="Layer_1" xmlns="http://www.w3.org/2000/svg" xmlns:xlink="http://www.w3.org/1999/xlink"
	 x="0px" y="0px" viewBox="0 0 512 512" overflow="visible" xml:space="preserve">
<path d="M448.8,435.1c-102.5,102.6-269.3,102.6-371.9,0s-102.6-269.4,0-372C104,36,137.1,15.3,175.2,1.8c12-4.2,25.3-1.2,34.2,7.8
	c9,9,12,22.3,7.8,34.2c-25.8,72.7-8.2,151.4,45.7,205.3s132.5,71.4,205.3,45.7c11.9-4.2,25.2-1.2,34.2,7.8c9,8.9,12,22.2,7.7,34.2
	C496.7,374.8,476,407.9,448.8,435.1z M123.4,109.6c-76.9,76.9-76.9,202.1,0,279c82.2,82.2,222.2,74.8,293.8-16.8
	c-73.9,4.6-146.7-22-200.9-76.2s-80.8-126.9-76.2-200.8C134.3,99.4,128.7,104.3,123.4,109.6z"/>
</svg>
