<?xml version="1.0" encoding="utf-8"?>
<!-- Generator: Adobe Illustrator 28.1.0, SVG Export Plug-In . SVG Version: 6.00 Build 0)  -->
<svg version="1.1" baseProfile="tiny" id="Layer_1" xmlns:sketch="http://www.bohemiancoding.com/sketch/ns"
	 xmlns="http://www.w3.org/2000/svg" xmlns:xlink="http://www.w3.org/1999/xlink" x="0px" y="0px" viewBox="0 0 32 32"
	 overflow="visible" xml:space="preserve">
<g id="Icons_new_Arranged_Names">
	<g id="_x35_5_Sun">
		<path id="Oval_13" fill-rule="evenodd" fill="#FFFFFF" d="M16,5.8c-0.8,0-1.5-0.7-1.5-1.5V1.5C14.5,0.7,15.2,0,16,0
			c0.8,0,1.5,0.7,1.5,1.5v2.9C17.5,5.2,16.8,5.8,16,5.8z M27.3,27.3c-0.6,0.6-1.5,0.6-2.1,0l-2-2c-0.6-0.6-0.6-1.5,0-2.1
			c0.6-0.6,1.5-0.6,2.1,0l2,2C27.9,25.8,27.9,26.7,27.3,27.3z M16,21.8c3.2,0,5.8-2.6,5.8-5.8s-2.6-5.8-5.8-5.8s-5.8,2.6-5.8,5.8
			S12.8,21.8,16,21.8z M16,32c-0.8,0-1.5-0.7-1.5-1.5v-2.9c0-0.8,0.7-1.5,1.5-1.5c0.8,0,1.5,0.7,1.5,1.5v2.9
			C17.5,31.4,16.8,32,16,32z M23.2,8.8c-0.6-0.6-0.6-1.5,0-2.1l2-2c0.6-0.6,1.5-0.6,2.1,0c0.6,0.6,0.6,1.5,0,2.1l-2,2
			C24.7,9.4,23.8,9.4,23.2,8.8z M8.8,23.2c0.6,0.6,0.6,1.5,0,2.1l-2,2c-0.6,0.6-1.5,0.6-2.1,0c-0.6-0.6-0.6-1.5,0-2.1l2-2
			C7.3,22.6,8.2,22.6,8.8,23.2z M16,24.7c-4.8,0-8.7-3.9-8.7-8.7s3.9-8.7,8.7-8.7s8.7,3.9,8.7,8.7S20.8,24.7,16,24.7z M0,16
			c0-0.8,0.7-1.5,1.5-1.5h2.9c0.8,0,1.5,0.7,1.5,1.5c0,0.8-0.7,1.5-1.5,1.5H1.5C0.6,17.5,0,16.8,0,16z M26.2,16
			c0-0.8,0.7-1.5,1.5-1.5h2.9c0.8,0,1.5,0.7,1.5,1.5c0,0.8-0.7,1.5-1.5,1.5h-2.9C26.8,17.5,26.2,16.8,26.2,16z M4.7,4.7
			c0.6-0.6,1.5-0.6,2.1,0l2,2c0.6,0.6,0.6,1.5,0,2.1c-0.6,0.6-1.5,0.6-2.1,0l-2-2C4.1,6.2,4.1,5.3,4.7,4.7z"/>
	</g>
</g>
</svg>
