<?xml version="1.0" encoding="utf-8"?>
<!-- Generator: Adobe Illustrator 28.1.0, SVG Export Plug-In . SVG Version: 6.00 Build 0)  -->
<svg version="1.1" id="Layer_1" xmlns="http://www.w3.org/2000/svg" xmlns:xlink="http://www.w3.org/1999/xlink" x="0px" y="0px"
	 viewBox="0 0 800 800" style="enable-background:new 0 0 800 800;" xml:space="preserve">
<style type="text/css">
	.st0{stroke:#000000;stroke-width:18;stroke-miterlimit:10;}
</style>
<g>
	<g>
		<path class="st0" d="M718.2,575.7c-90.6,0-134.5,29.1-173.2,54.7c-45.5,30.1-81.5,53.9-192.4,16.9C138.4,576,46.7,593,42.9,593.8
			c-9.5,1.9-15.7,11.1-13.8,20.7c1.8,9.5,11,15.8,20.7,14c0.8-0.2,88.3-15.3,291.6,52.5c44.5,14.8,79.1,20.7,107.4,20.7
			c52.8,0,83.7-20.5,115.8-41.7c36.3-24,73.8-48.8,153.7-48.8c9.8,0,17.7-7.9,17.7-17.7C735.9,583.7,728,575.7,718.2,575.7z"/>
	</g>
</g>
<g>
	<g>
		<path class="st0" d="M718.2,664.1c-90.6,0-134.5,29.1-173.2,54.7c-45.5,30.1-81.5,53.9-192.4,16.9
			c-214.2-71.4-305.8-54.4-309.6-53.6c-9.5,1.9-15.7,11.1-13.8,20.7c1.8,9.5,11,15.8,20.7,14c0.8-0.2,88.3-15.3,291.6,52.5
			c44.5,14.8,79.1,20.7,107.4,20.7c52.8,0,83.7-20.5,115.8-41.7c36.3-24,73.8-48.8,153.7-48.8c9.8,0,17.7-7.9,17.7-17.7
			C735.9,672,728,664.1,718.2,664.1z"/>
	</g>
</g>
<g>
	<g>
		<path class="st0" d="M400,10C195.3,10,28.7,176.5,28.7,381.3c0,60.3,14.8,120.2,42.8,173.2c3.2,6,9.3,9.4,15.6,9.4
			c2.8,0,5.6-0.7,8.2-2c8.6-4.6,11.9-15.3,7.4-23.9C77.5,490,64.1,435.8,64.1,381.3C64.1,196,214.8,45.4,400,45.4
			c185.2,0,335.9,150.7,335.9,335.9c0,48.6-10.2,95.6-30.2,139.4c-4.1,8.9-0.2,19.4,8.7,23.4c8.9,4.1,19.4,0.1,23.4-8.7
			c22.2-48.5,33.4-100.4,33.4-154.1C771.3,176.5,604.7,10,400,10z"/>
	</g>
</g>
</svg>
