<?xml version="1.0" encoding="utf-8"?>
<!-- Generator: Adobe Illustrator 28.1.0, SVG Export Plug-In . SVG Version: 6.00 Build 0)  -->
<svg version="1.1" baseProfile="tiny" id="Layer_1" xmlns="http://www.w3.org/2000/svg" xmlns:xlink="http://www.w3.org/1999/xlink"
	 x="0px" y="0px" viewBox="0 0 100 100" overflow="visible" xml:space="preserve">
<g>
	<path fill="#E51E26" d="M97.7,26c-1.1-4.3-4.5-7.7-8.8-8.8c-7.8-2.1-39-2.1-39-2.1s-31.2,0-39,2.1c-4.3,1.1-7.7,4.5-8.8,8.8
		C0,33.8,0,50,0,50s0,16.2,2.1,24c1.1,4.3,4.5,7.7,8.8,8.8c7.8,2.1,39,2.1,39,2.1s31.2,0,39-2.1c4.3-1.1,7.7-4.5,8.8-8.8
		c2.1-7.8,2.1-24,2.1-24S99.8,33.8,97.7,26z M39.9,65V35l25.9,15L39.9,65z"/>
</g>
</svg>
